<svg id="Layer_1" data-name="Layer 1" xmlns="http://www.w3.org/2000/svg" viewBox="0 0 599.328 379.472"><defs><style>.cls-1{fill:#027be3;}</style></defs><path class="cls-1" d="M21.053,271.144q117.683-.159,235.363-.046a40.189,40.189,0,0,1,4.566.078c6.862.794,12.552,4.59,15.609,13.269,5.237,14.106,1.057,31.3-9.336,38.411a16.73,16.73,0,0,1-9.517,3.06c-45.076-.706-90.162-.23-135.243-.212a41.879,41.879,0,0,0-4.566.067c-10.764.9-18.952,13.474-18.288,28.084a33.078,33.078,0,0,0,3.46,13.5c4.529,8.976,11.087,11.391,18.634,11.388,93.094-.043,186.185-.184,279.276.226,9.909.042,18.71-1.847,26.426-10.47.632-.706,1.366-1.232,2.013-1.913,14.871-15.664,30.152-30.681,44.486-47.2,14.243-16.409,28.1-33.611,41.1-51.8,12.526-17.5,23.673-36.82,35.6-55.121a117.922,117.922,0,0,0,16.875-36.969c4.792-19.575,10.542-38.763,14.7-58.575,6.244-29.758,11.522-59.888,17-89.933a56.814,56.814,0,0,0,.4-13.255C599.137,5.731,595.955.78,590.25,0A93.73,93.73,0,0,0,574.121-.2a5.783,5.783,0,0,0-3.283,2.4Q554.08,22.482,537.412,42.9a777.1,777.1,0,0,1-61.858,68.041c-13.913,13.386-28.658,25.187-43.112,37.52a2.844,2.844,0,0,1-3.455-.6,78.036,78.036,0,0,1-4.029-8.333c-1.236-2.57-.752-4.085,1.183-5.709,14.118-11.861,28.616-23.018,42.126-36.058,17.144-16.549,33.525-34.561,50.115-52.155,7.638-8.1,15.088-16.557,22.43-25.137,4.942-5.759,9.55-12,14.308-18.054L554.7.3c-3.166,0-6.332.024-9.5,0C518.626.067,492.052-.339,465.481-.4q-90.81-.165-181.614-.049-74.822,0-149.642.152a20.175,20.175,0,0,0-11.811,3.234c-9.544,7.381-12.872,23.865-7.434,36.818q.186.442.384.875c3.735,8.561,10.7,13.538,18.018,12.87q126.636-.052,253.279-.116c5.332-.288,10.45,2.865,13.8,8.5,5.924,9.481,6.189,20.126,2.622,30.822-2.749,9.481-9.718,15.439-17.206,14.71-33.138-.336-66.278-.135-99.415-.135q-60.774,0-121.546.025c-11.014-.037-19.965,12.053-19.992,27a36.4,36.4,0,0,0,.278,4.568c1.122,13.253,9.6,23.074,19.42,22.5,31.147.039,62.3-.025,93.442.049,8.2-.441,15.754,6,19.017,16.221,3.666,11.961,1.365,25.761-5.739,34.413-4.216,4.148-9.374,6.148-14.568,5.649-11.34.145-22.68.025-34.02.025H94.242q-37.062,0-74.123.124C9.274,217.865.49,229.808.5,244.527s8.809,26.641,19.653,26.628c.314,0,.628-.011.941-.032Z" transform="translate(-0.5 0.5)"/><path class="cls-1" d="M515.008,378.679A35.976,35.976,0,0,0,536.7,372.16c5.982-3.814,10.311-11.2,11.706-19.967,5.112-29.021,10.827-57.844,16.129-86.8,3.109-16.949,5.984-33.957,8.783-50.994.814-4.961,1.015-10.113,1.5-15.183l-.962-.572c-3.286,5.317-6.525,10.688-9.862,15.942-13.216,20.79-26.2,41.866-39.79,62.19-8.325,12.436-17.341,24.067-26.493,35.394-12.7,15.727-25.859,30.78-38.762,46.224-4.808,5.755-10.893,10.18-11.967,20.144a9.641,9.641,0,0,0,1.259.145Q481.641,378.7,515.008,378.679Z" transform="translate(-0.5 0.5)"/><path class="cls-1" d="M55.567,161.169a57.3,57.3,0,0,0,14.308.887c8.01-.265,15.429-1.985,20.148-12.818a33.33,33.33,0,0,0,1.158-26.2c-3.6-9.318-8.861-16.383-17.594-15.779-2.216.152-4.443.021-6.662.028-2.807,0-5.612-.025-8.416,0-10.841.145-19.051,10.776-19.311,26.906C38.98,147.748,44.058,158.62,55.567,161.169Z" transform="translate(-0.5 0.5)"/></svg>