<?xml version="1.0" encoding="utf-8"?>
<!-- Generator: Adobe Illustrator 25.4.1, SVG Export Plug-In . SVG Version: 6.00 Build 0)  -->
<svg version="1.1" id="Layer_1" xmlns="http://www.w3.org/2000/svg" xmlns:xlink="http://www.w3.org/1999/xlink" x="0px" y="0px"
	 viewBox="0 0 127.1 127.1" style="enable-background:new 0 0 127.1 127.1;" xml:space="preserve">
<g id="图层_2">
	<g id="Discord_Logos">
		<g id="Discord_Logo_-_Large_-_White">
			<path d="M107.7,23.5c-8.4-3.8-17.2-6.5-26.2-8.1c-1.2,2.2-2.4,4.5-3.4,6.8c-9.6-1.5-19.5-1.5-29.1,0c-1-2.3-2.1-4.6-3.4-6.8
				c-9.1,1.5-17.9,4.3-26.2,8.1C2.8,48-1.7,72,0.5,95.6l0,0c9.7,7.2,20.6,12.6,32.2,16.2c2.6-3.5,4.9-7.2,6.9-11.1
				c-3.8-1.4-7.4-3.1-10.9-5.2c0.9-0.7,1.8-1.3,2.7-2c20.4,9.6,44,9.6,64.3,0c0.9,0.7,1.8,1.4,2.7,2c-3.5,2-7.1,3.8-10.9,5.2
				c2,3.9,4.3,7.6,6.9,11.1c11.6-3.5,22.5-9,32.2-16.1l0,0C129.2,68.2,122.1,44.5,107.7,23.5z M42.5,81.1c-6.3,0-11.5-5.7-11.5-12.7
				s5-12.7,11.4-12.7S54,61.4,53.9,68.4S48.8,81.1,42.5,81.1z M84.7,81.1c-6.3,0-11.4-5.7-11.4-12.7s5-12.7,11.4-12.7
				s11.5,5.7,11.4,12.7S91.1,81.1,84.7,81.1z"/>
		</g>
	</g>
</g>
</svg>
