<svg id="Layer_1" data-name="Layer 1" xmlns="http://www.w3.org/2000/svg" viewBox="0 0 500 500"><defs><style>.cls-1,.cls-13{fill:#fff;}.cls-1{stroke:#fff;stroke-miterlimit:10;}.cls-2{fill:#4ce;}.cls-3{fill:#48d0f2;}.cls-4{fill:#62d7f4;}.cls-5{fill:#7ddef6;}.cls-6{fill:#98e5f9;}.cls-7{fill:#9eebff;}.cls-8{fill:#a5edff;}.cls-9{fill:#b5f0ff;}.cls-10{fill:#c5f3ff;}.cls-11{fill:#d4f6ff;}.cls-12{fill:#ebfbff;}</style></defs><ellipse class="cls-1" cx="299.5" cy="458.5" rx="69" ry="42"/><ellipse class="cls-2" cx="39.5" cy="11.5" rx="66" ry="34"/><ellipse class="cls-2" cx="161" cy="5" rx="86.5" ry="31.5"/><ellipse class="cls-2" cx="292" cy="-12.5" rx="71.5" ry="40"/><ellipse class="cls-2" cx="399" cy="-1.5" rx="62.5" ry="47"/><ellipse class="cls-2" cx="478.5" cy="16" rx="55" ry="46.5"/><ellipse class="cls-3" cx="34" cy="67" rx="56.5" ry="43.5"/><ellipse class="cls-3" cx="127" cy="50.5" rx="56.5" ry="39"/><ellipse class="cls-3" cx="219.5" cy="41" rx="55" ry="35.5"/><ellipse class="cls-3" cx="327.5" cy="44.5" rx="71" ry="45"/><ellipse class="cls-3" cx="443.5" cy="67.5" rx="80" ry="40"/><ellipse class="cls-4" cx="62" cy="119" rx="84.5" ry="51.5"/><ellipse class="cls-4" cx="200.5" cy="103" rx="81" ry="47.5"/><ellipse class="cls-4" cx="313" cy="76" rx="59.5" ry="34.5"/><ellipse class="cls-4" cx="390" cy="100" rx="77.5" ry="32.5"/><ellipse class="cls-4" cx="487" cy="104.5" rx="43.5" ry="28"/><ellipse class="cls-5" cx="-3.5" cy="168" rx="56" ry="48.5"/><ellipse class="cls-5" cx="87.5" cy="169.5" rx="48" ry="37"/><ellipse class="cls-5" cx="155.5" cy="149.5" rx="50" ry="30"/><circle class="cls-5" cx="239.5" cy="149.5" r="42"/><ellipse class="cls-5" cx="320" cy="134.5" rx="58.5" ry="45"/><ellipse class="cls-5" cx="441.5" cy="144" rx="85" ry="40.5"/><ellipse class="cls-6" cx="467.5" cy="183" rx="44" ry="33.5"/><ellipse class="cls-6" cx="381" cy="180.5" rx="57.5" ry="31"/><ellipse class="cls-6" cx="294" cy="182.5" rx="49.5" ry="44"/><ellipse class="cls-6" cx="215" cy="183" rx="47.5" ry="33.5"/><ellipse class="cls-6" cx="131" cy="197" rx="52.5" ry="39.5"/><ellipse class="cls-6" cx="38.5" cy="213" rx="52" ry="42.5"/><ellipse class="cls-7" cx="39" cy="258.5" rx="57.5" ry="32"/><ellipse class="cls-7" cx="121" cy="240" rx="54.5" ry="28.5"/><ellipse class="cls-7" cx="226" cy="230" rx="70.5" ry="32.5"/><ellipse class="cls-7" cx="357" cy="228" rx="75.5" ry="30.5"/><ellipse class="cls-7" cx="462" cy="213" rx="58.5" ry="33.5"/><ellipse class="cls-8" cx="471.5" cy="261" rx="62" ry="44.5"/><ellipse class="cls-8" cx="378.5" cy="260" rx="47" ry="30.5"/><ellipse class="cls-8" cx="309" cy="253.5" rx="47.5" ry="31"/><ellipse class="cls-8" cx="230.5" cy="272" rx="69" ry="35.5"/><ellipse class="cls-8" cx="143.5" cy="277" rx="77" ry="40.5"/><ellipse class="cls-9" cx="32.5" cy="301" rx="55" ry="32.5"/><ellipse class="cls-9" cx="44" cy="353" rx="70.5" ry="45.5"/><ellipse class="cls-9" cx="133.5" cy="330.5" rx="77" ry="46"/><ellipse class="cls-9" cx="233.5" cy="308" rx="66" ry="28.5"/><ellipse class="cls-9" cx="324" cy="298" rx="54.5" ry="42.5"/><ellipse class="cls-9" cx="435" cy="310.5" rx="85.5" ry="39"/><ellipse class="cls-9" cx="300" cy="342.5" rx="106.5" ry="37"/><ellipse class="cls-10" cx="17" cy="401" rx="30.5" ry="24.5"/><ellipse class="cls-10" cx="57.5" cy="387.5" rx="30" ry="35"/><ellipse class="cls-10" cx="116" cy="384" rx="45.5" ry="25.5"/><ellipse class="cls-10" cx="176.5" cy="375" rx="43" ry="25.5"/><ellipse class="cls-10" cx="237.5" cy="378.5" rx="37" ry="20"/><ellipse class="cls-10" cx="296.5" cy="373.5" rx="40" ry="27"/><ellipse class="cls-10" cx="356.5" cy="370.5" rx="29" ry="24"/><ellipse class="cls-10" cx="455" cy="359.5" rx="82.5" ry="35"/><ellipse class="cls-11" cx="485" cy="400" rx="41.5" ry="25.5"/><ellipse class="cls-12" cx="71" cy="433.5" rx="93.5" ry="33"/><ellipse class="cls-11" cx="229" cy="398.5" rx="45.5" ry="24"/><ellipse class="cls-11" cx="306.5" cy="405" rx="50" ry="28.5"/><ellipse class="cls-11" cx="401.5" cy="398.5" rx="66" ry="24"/><ellipse class="cls-12" cx="465" cy="441.5" rx="55.5" ry="42"/><ellipse class="cls-12" cx="387.5" cy="436" rx="51" ry="33.5"/><ellipse class="cls-12" cx="312" cy="431" rx="44.5" ry="19.5"/><ellipse class="cls-12" cx="204.25" cy="424.75" rx="89.25" ry="36.75"/><ellipse class="cls-13" cx="29" cy="481" rx="80.5" ry="34.5"/><ellipse class="cls-13" cx="149" cy="475" rx="61.5" ry="33.5"/><ellipse class="cls-13" cx="240" cy="478.5" rx="63.5" ry="37"/><ellipse class="cls-13" cx="321" cy="479" rx="64.5" ry="43.5"/><ellipse class="cls-13" cx="439.5" cy="481" rx="87" ry="34.5"/></svg>