<?xml version="1.0" encoding="utf-8"?>
<!-- Generator: Adobe Illustrator 25.4.1, SVG Export Plug-In . SVG Version: 6.00 Build 0)  -->
<svg version="1.1" id="Layer_1" xmlns="http://www.w3.org/2000/svg" xmlns:xlink="http://www.w3.org/1999/xlink" x="0px" y="0px"
	 viewBox="0 0 151 151" style="enable-background:new 0 0 151 151;" xml:space="preserve">
<style type="text/css">
	.st0{fill:url(#path-2_00000138551866967779233500000000886662973204905912_);}
	.st1{filter:url(#Adobe_OpacityMaskFilter);}
	.st2{fill-rule:evenodd;clip-rule:evenodd;fill:#FFFFFF;}
	.st3{mask:url(#mask-3_00000006701129301521022180000012828239276513818019_);}
	.st4{fill:#FFA000;}
	.st5{fill:#F57C00;}
	.st6{fill:#FFCA28;}
	.st7{fill:#FFFFFF;fill-opacity:0.2;}
	.st8{opacity:0.2;fill:#A52714;enable-background:new    ;}
	.st9{filter:url(#Adobe_OpacityMaskFilter_00000088127832237112880280000012925294527308761260_);}
	.st10{mask:url(#mask-3_00000083769392766961745410000004485263386914592172_);fill:none;}
	.st11{filter:url(#Adobe_OpacityMaskFilter_00000008839024451244251840000018075052634268753065_);}
	
		.st12{mask:url(#mask-3_00000085210170131423768150000003997128709736450447_);fill:url(#_Path_5_00000133517297180746605630000014614277131099888534_);}
</style>
<desc>Created with Sketch.</desc>
<g id="Page-1">
	<g id="styleguide" transform="translate(-664.000000, -1272.000000)">
		<g id="Group-16" transform="translate(40.000000, 1187.000000)">
			<g id="Group-9" transform="translate(114.000000, 0.000000)">
				<g id="Group-26" transform="translate(405.000000, 1.000000)">
					<g id="logo_lockup_firebase_vertical" transform="translate(105.193370, 83.977901)">
						<g id="_Group_">
							<g id="_Path_5">
								
									<linearGradient id="path-2_00000008133618315751660540000012137811326734624156_" gradientUnits="userSpaceOnUse" x1="-601.5023" y1="457.799" x2="-600.4591" y2="457.0404" gradientTransform="matrix(109.5018 0 0 -150.0389 65882.25 68713.3359)">
									<stop  offset="0" style="stop-color:#FFFFFF;stop-opacity:0.1"/>
									<stop  offset="1" style="stop-color:#FFFFFF;stop-opacity:0"/>
								</linearGradient>
								
									<path id="path-2_00000099642581974687466570000012815319714423339939_" style="fill:url(#path-2_00000008133618315751660540000012137811326734624156_);" d="
									M115.8,33.6c-0.2-1.3-1.1-2.3-2.3-2.7c-1.2-0.4-2.6-0.1-3.5,0.8L92.3,49.6l-14-26.5c-0.6-1.1-1.7-1.9-3-1.9s-2.4,0.7-3,1.9
									l-7.6,14.5L45.4,1.9C43.9-1,39.5-0.2,39,3L20.5,121.2L70,148.9c3.1,1.7,6.9,1.7,10,0l50-27.7L115.8,33.6z"/>
							</g>
							<defs>
								<filter id="Adobe_OpacityMaskFilter" filterUnits="userSpaceOnUse" x="14.1" y="0.1" width="122.1" height="154.3">
									<feColorMatrix  type="matrix" values="1 0 0 0 0  0 1 0 0 0  0 0 1 0 0  0 0 0 1 0"/>
								</filter>
							</defs>
							
								<mask maskUnits="userSpaceOnUse" x="14.1" y="0.1" width="122.1" height="154.3" id="mask-3_00000006701129301521022180000012828239276513818019_">
								<g class="st1">
									<path id="path-2_00000172414672628982834920000003625544291868776586_" class="st2" d="M115.8,33.6
										c-0.2-1.3-1.1-2.3-2.3-2.7c-1.2-0.4-2.6-0.1-3.5,0.8L92.3,49.6l-14-26.5c-0.6-1.1-1.7-1.9-3-1.9s-2.4,0.7-3,1.9l-7.6,14.5
										L45.4,1.9C43.9-1,39.5-0.2,39,3L20.5,121.2L70,148.9c3.1,1.7,6.9,1.7,10,0l50-27.7L115.8,33.6z"/>
								</g>
							</mask>
							<g id="_Group_2" class="st3">
								<g transform="translate(-6.346125, -0.160154)">
									<g id="_Group_3">
										<path id="_Path_" class="st4" d="M26.8,121.3L45.4,3.2c0.5-3.2,4.9-4,6.4-1.1L71,37.7l7.6-14.5c0.6-1.1,1.8-1.8,3-1.8
											c1.3,0,2.4,0.7,3,1.8l51.7,98.1H26.8z"/>
										<g id="_Group_4" transform="translate(0.000000, 30.119310)">
											<g style="opacity:0.12;enable-background:new    ;">
												
													<image style="overflow:visible;" width="87" height="112" id="Bitmap" xlink:href="AC04FA75.png"  transform="matrix(0.8448 0 0 0.8448 20.4637 0)">
												</image>
											</g>
											<polygon id="Shape" class="st5" points="90.8,45.2 70.9,7.6 26.8,91.2 											"/>
										</g>
									</g>
									<g id="_Group_5" transform="translate(3.421930, 23.299844)">
										<g style="opacity:0.2;enable-background:new    ;">
											
												<image style="overflow:visible;" width="140" height="155" id="_Image_" xlink:href="AC04FA77.png"  transform="matrix(0.8469 0 0 0.8469 20.5984 0)">
											</image>
										</g>
										<g id="_Group_6" transform="translate(3.421930, 7.387755)">
											<path id="_Path_2" class="st6" d="M129.5,90.6L115.3,3.1c-0.2-1.3-1.1-2.3-2.3-2.7s-2.6-0.1-3.5,0.8L20,90.6l49.5,27.7
												c3.1,1.7,6.9,1.7,10,0L129.5,90.6z"/>
										</g>
									</g>
									<path id="_Compound_Path_" class="st7" d="M122.1,33.8c-0.2-1.3-1.1-2.3-2.3-2.7c-1.2-0.4-2.6-0.1-3.5,0.8L98.6,49.7
										l-14-26.5c-0.6-1.1-1.7-1.9-3-1.9s-2.4,0.7-3,1.9L71,37.7L51.7,2.1c-1.5-2.9-5.9-2.1-6.4,1.1L26.8,121.3h-0.1l0.1,0.1
										l0.5,0.3l71.2-71.1l17.8-17.7c0.9-0.9,2.3-1.2,3.5-0.8c1.2,0.4,2.1,1.4,2.3,2.7l14,86.7l0.2-0.1L122.1,33.8z M27,121.2
										L45.4,4c0.5-3.2,4.9-4,6.4-1.1L71,38.6l7.6-14.5c0.6-1.1,1.8-1.8,3-1.8c1.3,0,2.4,0.7,3,1.8L98.4,50L27,121.2z"/>
									<path id="_Path_3" class="st8" d="M86.4,148.2c-3.1,1.7-6.9,1.7-10,0l-49.4-27.6l-0.1,0.8L76.4,149c3.1,1.7,6.9,1.7,10,0
										l50-27.7l-0.1-0.8L86.4,148.2z"/>
								</g>
							</g>
							<defs>
								
									<filter id="Adobe_OpacityMaskFilter_00000147201848739765938270000014965167785220019864_" filterUnits="userSpaceOnUse" x="-6.9" y="-6.7" width="164.3" height="163.7">
									<feColorMatrix  type="matrix" values="1 0 0 0 0  0 1 0 0 0  0 0 1 0 0  0 0 0 1 0"/>
								</filter>
							</defs>
							
								<mask maskUnits="userSpaceOnUse" x="-6.9" y="-6.7" width="164.3" height="163.7" id="mask-3_00000083769392766961745410000004485263386914592172_">
								<g style="filter:url(#Adobe_OpacityMaskFilter_00000147201848739765938270000014965167785220019864_);">
									<path id="path-2_00000070098581348029920700000016856406017339504041_" class="st2" d="M115.8,33.6
										c-0.2-1.3-1.1-2.3-2.3-2.7c-1.2-0.4-2.6-0.1-3.5,0.8L92.3,49.6l-14-26.5c-0.6-1.1-1.7-1.9-3-1.9s-2.4,0.7-3,1.9l-7.6,14.5
										L45.4,1.9C43.9-1,39.5-0.2,39,3L20.5,121.2L70,148.9c3.1,1.7,6.9,1.7,10,0l50-27.7L115.8,33.6z"/>
								</g>
							</mask>
							<polygon id="_Path_4" class="st10" points="-6.9,-6.7 157.4,-6.7 157.4,157 -6.9,157 							"/>
							<defs>
								
									<filter id="Adobe_OpacityMaskFilter_00000022530518933969152590000012096842237501906102_" filterUnits="userSpaceOnUse" x="20.5" y="0.1" width="109.5" height="150">
									<feColorMatrix  type="matrix" values="1 0 0 0 0  0 1 0 0 0  0 0 1 0 0  0 0 0 1 0"/>
								</filter>
							</defs>
							
								<mask maskUnits="userSpaceOnUse" x="20.5" y="0.1" width="109.5" height="150" id="mask-3_00000085210170131423768150000003997128709736450447_">
								<g style="filter:url(#Adobe_OpacityMaskFilter_00000022530518933969152590000012096842237501906102_);">
									<path id="path-2_00000142156793320286395440000014457084703337103779_" class="st2" d="M115.8,33.6
										c-0.2-1.3-1.1-2.3-2.3-2.7c-1.2-0.4-2.6-0.1-3.5,0.8L92.3,49.6l-14-26.5c-0.6-1.1-1.7-1.9-3-1.9s-2.4,0.7-3,1.9l-7.6,14.5
										L45.4,1.9C43.9-1,39.5-0.2,39,3L20.5,121.2L70,148.9c3.1,1.7,6.9,1.7,10,0l50-27.7L115.8,33.6z"/>
								</g>
							</mask>
							
								<linearGradient id="_Path_5_00000090984002790917054720000010103805007234168730_" gradientUnits="userSpaceOnUse" x1="-601.5023" y1="457.799" x2="-600.4591" y2="457.0404" gradientTransform="matrix(109.5018 0 0 -150.0389 65882.25 68713.3359)">
								<stop  offset="0" style="stop-color:#FFFFFF;stop-opacity:0.1"/>
								<stop  offset="1" style="stop-color:#FFFFFF;stop-opacity:0"/>
							</linearGradient>
							
								<path id="_Path_5_00000154405438047788868240000004165465860639312289_" style="mask:url(#mask-3_00000085210170131423768150000003997128709736450447_);fill:url(#_Path_5_00000090984002790917054720000010103805007234168730_);" d="
								M115.8,33.6c-0.2-1.3-1.1-2.3-2.3-2.7c-1.2-0.4-2.6-0.1-3.5,0.8L92.3,49.6l-14-26.5c-0.6-1.1-1.7-1.9-3-1.9s-2.4,0.7-3,1.9
								l-7.6,14.5L45.4,1.9C43.9-1,39.5-0.2,39,3L20.5,121.2L70,148.9c3.1,1.7,6.9,1.7,10,0l50-27.7L115.8,33.6z"/>
						</g>
					</g>
				</g>
			</g>
		</g>
	</g>
</g>
</svg>
